<svg xmlns="http://www.w3.org/2000/svg" xmlns:xlink="http://www.w3.org/1999/xlink" viewBox="0 0 64 64" fill="#5B5B5B">
  <path d="M3 8C1.347656 8 0 9.347656 0 11L0 53C0 54.652344 1.347656 56 3 56L13 56C13.550781 56 14 55.550781 14 55L14 53.222656C14 52.941406 13.882813 52.667969 13.671875 52.480469C13.238281 52.089844 13 51.5625 13 51C13 49.898438 13.898438 49 15 49C16.101563 49 17 49.898438 17 51C17 51.5625 16.761719 52.089844 16.328125 52.480469C16.117188 52.667969 16 52.9375 16 53.222656L16 55C16 55.550781 16.449219 56 17 56L29 56C29.550781 56 30 55.550781 30 55L30 53.222656C30 52.941406 29.882813 52.667969 29.671875 52.480469C29.238281 52.089844 29 51.5625 29 51C29 49.898438 29.898438 49 31 49C32.101563 49 33 49.898438 33 51C33 51.5625 32.761719 52.089844 32.328125 52.480469C32.117188 52.667969 32 52.9375 32 53.222656L32 55C32 55.550781 32.449219 56 33 56L45 56C45.550781 56 46 55.550781 46 55L46 53.222656C46 52.941406 45.882813 52.667969 45.671875 52.480469C45.238281 52.089844 45 51.5625 45 51C45 49.898438 45.898438 49 47 49C48.101563 49 49 49.898438 49 51C49 51.5625 48.761719 52.089844 48.328125 52.480469C48.117188 52.667969 48 52.9375 48 53.222656L48 55C48 55.550781 48.449219 56 49 56L59 56C60.652344 56 62 54.652344 62 53L62 11C62 9.347656 60.652344 8 59 8 Z M 3 10L59 10C59.550781 10 60 10.449219 60 11L60 53C60 53.550781 59.550781 54 59 54L50 54L50 53.628906C50.640625 52.902344 51 51.964844 51 51C51 48.792969 49.207031 47 47 47C44.792969 47 43 48.792969 43 51C43 51.964844 43.359375 52.902344 44 53.628906L44 54L34 54L34 53.628906C34.640625 52.902344 35 51.964844 35 51C35 48.792969 33.207031 47 31 47C28.792969 47 27 48.792969 27 51C27 51.964844 27.359375 52.902344 28 53.628906L28 54L18 54L18 53.628906C18.640625 52.902344 19 51.964844 19 51C19 48.792969 17.207031 47 15 47C12.792969 47 11 48.792969 11 51C11 51.964844 11.359375 52.902344 12 53.628906L12 54L3 54C2.449219 54 2 53.550781 2 53L2 11C2 10.449219 2.449219 10 3 10 Z M 19 16C15.140625 16 12 19.140625 12 23L12 25C12 26.613281 12.550781 28.3125 13.492188 29.722656C10.359375 30.847656 7.683594 33.25 6.097656 36.566406C5.859375 37.0625 6.070313 37.660156 6.570313 37.902344C7.066406 38.140625 7.664063 37.929688 7.902344 37.433594C9.382813 34.339844 11.945313 32.167969 14.910156 31.359375C16.042969 32.359375 17.445313 33 19 33C20.554688 33 21.957031 32.359375 23.09375 31.359375C26.058594 32.167969 28.617188 34.339844 30.097656 37.433594C30.269531 37.789063 30.628906 38 31 38C31.144531 38 31.292969 37.96875 31.433594 37.902344C31.929688 37.664063 32.140625 37.066406 31.902344 36.566406C30.3125 33.253906 27.640625 30.847656 24.507813 29.722656C25.449219 28.3125 26 26.617188 26 25L26 23C26 19.140625 22.859375 16 19 16 Z M 19 18C21.757813 18 24 20.242188 24 23L24 25C24 27.71875 21.769531 31 19 31C16.230469 31 14 27.71875 14 25L14 23C14 20.242188 16.242188 18 19 18 Z M 35 20C34.449219 20 34 20.449219 34 21C34 21.550781 34.449219 22 35 22L45 22C45.550781 22 46 21.550781 46 21C46 20.449219 45.550781 20 45 20 Z M 49 20C48.449219 20 48 20.449219 48 21C48 21.550781 48.449219 22 49 22L53 22C53.550781 22 54 21.550781 54 21C54 20.449219 53.550781 20 53 20 Z M 35 26C34.449219 26 34 26.449219 34 27C34 27.550781 34.449219 28 35 28L53 28C53.550781 28 54 27.550781 54 27C54 26.449219 53.550781 26 53 26 Z M 35 32C34.449219 32 34 32.449219 34 33C34 33.550781 34.449219 34 35 34L47 34C47.550781 34 48 33.550781 48 33C48 32.449219 47.554688 32 47 32 Z M 6 40C5.398438 40 5 40.445313 5 41L5 43C5 43.554688 5.398438 44 6 44C6.601563 44 7 43.554688 7 43L7 41C7 40.449219 6.601563 40 6 40 Z M 11 40C10.398438 40 10 40.445313 10 41L10 43C10 43.554688 10.398438 44 11 44C11.601563 44 12 43.554688 12 43L12 41C12 40.449219 11.601563 40 11 40 Z M 16 40C15.398438 40 15 40.445313 15 41L15 43C15 43.554688 15.398438 44 16 44C16.601563 44 17 43.554688 17 43L17 41C17 40.449219 16.601563 40 16 40 Z M 21 40C20.398438 40 20 40.445313 20 41L20 43C20 43.554688 20.398438 44 21 44C21.601563 44 22 43.554688 22 43L22 41C22 40.449219 21.601563 40 21 40 Z M 26 40C25.398438 40 25 40.445313 25 41L25 43C25 43.554688 25.398438 44 26 44C26.601563 44 27 43.554688 27 43L27 41C27 40.449219 26.601563 40 26 40 Z M 31 40C30.398438 40 30 40.445313 30 41L30 43C30 43.554688 30.398438 44 31 44C31.601563 44 32 43.554688 32 43L32 41C32 40.449219 31.601563 40 31 40 Z M 36 40C35.398438 40 35 40.445313 35 41L35 43C35 43.554688 35.398438 44 36 44C36.601563 44 37 43.554688 37 43L37 41C37 40.449219 36.601563 40 36 40 Z M 41 40C40.398438 40 40 40.445313 40 41L40 43C40 43.554688 40.398438 44 41 44C41.601563 44 42 43.554688 42 43L42 41C42 40.449219 41.601563 40 41 40 Z M 46 40C45.398438 40 45 40.445313 45 41L45 43C45 43.554688 45.398438 44 46 44C46.601563 44 47 43.554688 47 43L47 41C47 40.449219 46.601563 40 46 40 Z M 51 40C50.398438 40 50 40.445313 50 41L50 43C50 43.554688 50.398438 44 51 44C51.601563 44 52 43.554688 52 43L52 41C52 40.449219 51.601563 40 51 40 Z M 56 40C55.398438 40 55 40.445313 55 41L55 43C55 43.554688 55.398438 44 56 44C56.601563 44 57 43.554688 57 43L57 41C57 40.449219 56.601563 40 56 40Z" fill="#5B5B5B" />
</svg>