<svg xmlns="http://www.w3.org/2000/svg" xmlns:xlink="http://www.w3.org/1999/xlink" viewBox="0 0 64 64" fill="#5B5B5B">
  <path d="M19 8C18.789063 8 18.578125 8.066406 18.402344 8.199219L15 10.75L11.597656 8.199219C11.296875 7.972656 10.890625 7.933594 10.550781 8.105469C10.214844 8.277344 10 8.621094 10 9L10 52L8 52C5.792969 52 4 53.792969 4 56C4 58.207031 5.792969 60 8 60L56 60C58.207031 60 60 58.207031 60 56C60 53.792969 58.207031 52 56 52L54 52L54 11C54 10.734375 53.894531 10.480469 53.707031 10.292969L51.707031 8.292969C51.355469 7.941406 50.796875 7.898438 50.402344 8.199219L47 10.75L43.601563 8.199219C43.246094 7.933594 42.753906 7.933594 42.402344 8.199219L39 10.75L35.597656 8.199219C35.246094 7.929688 34.753906 7.933594 34.402344 8.199219L31 10.75L27.597656 8.199219C27.246094 7.933594 26.753906 7.933594 26.402344 8.199219L23 10.75L19.597656 8.199219C19.421875 8.066406 19.210938 8 19 8 Z M 19 10.25L22.402344 12.800781C22.753906 13.066406 23.246094 13.066406 23.597656 12.800781L27 10.25L30.402344 12.800781C30.753906 13.070313 31.246094 13.066406 31.597656 12.800781L35 10.25L38.402344 12.800781C38.753906 13.070313 39.246094 13.066406 39.597656 12.800781L43 10.25L46.402344 12.800781C46.753906 13.066406 47.246094 13.066406 47.597656 12.800781L50.90625 10.320313L52 11.414063L52 48C51.449219 48 51 48.449219 51 49L51 51C51 51.550781 51.449219 52 52 52L52 58L12 58L12 52C12.550781 52 13 51.550781 13 51L13 49C13 48.449219 12.550781 48 12 48L12 11L14.402344 12.800781C14.753906 13.066406 15.246094 13.066406 15.597656 12.800781 Z M 19 18C18.449219 18 18 18.449219 18 19C18 19.550781 18.449219 20 19 20L35 20C35.550781 20 36 19.550781 36 19C36 18.449219 35.550781 18 35 18 Z M 39 18C38.449219 18 38 18.449219 38 19C38 19.550781 38.449219 20 39 20L45 20C45.550781 20 46 19.550781 46 19C46 18.449219 45.550781 18 45 18 Z M 19 22C18.449219 22 18 22.449219 18 23C18 23.550781 18.449219 24 19 24L30 24C30.550781 24 31 23.550781 31 23C31 22.449219 30.550781 22 30 22 Z M 42 24C41.449219 24 41 24.449219 41 25L41 26C39.347656 26 38 27.347656 38 29L38 32C38 33.652344 39.347656 35 41 35L43 35C43.550781 35 44 35.449219 44 36L44 39C44 39.550781 43.550781 40 43 40L41 40C40.449219 40 40 39.550781 40 39L40 38C40 37.449219 39.550781 37 39 37C38.449219 37 38 37.449219 38 38L38 39C38 40.652344 39.347656 42 41 42L41 43C41 43.550781 41.449219 44 42 44C42.550781 44 43 43.550781 43 43L43 42C44.652344 42 46 40.652344 46 39L46 36C46 34.347656 44.652344 33 43 33L41 33C40.449219 33 40 32.550781 40 32L40 29C40 28.449219 40.449219 28 41 28L43 28C43.550781 28 44 28.449219 44 29L44 30C44 30.550781 44.449219 31 45 31C45.550781 31 46 30.550781 46 30L46 29C46 27.347656 44.652344 26 43 26L43 25C43 24.449219 42.550781 24 42 24 Z M 19 30C18.449219 30 18 30.449219 18 31C18 31.550781 18.449219 32 19 32L29 32C29.550781 32 30 31.550781 30 31C30 30.449219 29.550781 30 29 30 Z M 19 34C18.449219 34 18 34.449219 18 35C18 35.550781 18.449219 36 19 36L32 36C32.550781 36 33 35.550781 33 35C33 34.449219 32.550781 34 32 34 Z M 19 38C18.449219 38 18 38.449219 18 39C18 39.550781 18.449219 40 19 40L23 40C23.550781 40 24 39.550781 24 39C24 38.449219 23.550781 38 23 38 Z M 27 38C26.449219 38 26 38.449219 26 39C26 39.550781 26.449219 40 27 40L29 40C29.550781 40 30 39.550781 30 39C30 38.449219 29.550781 38 29 38 Z M 17 48C16.449219 48 16 48.449219 16 49L16 51C16 51.550781 16.449219 52 17 52C17.550781 52 18 51.550781 18 51L18 49C18 48.449219 17.550781 48 17 48 Z M 22 48C21.449219 48 21 48.449219 21 49L21 51C21 51.550781 21.449219 52 22 52C22.550781 52 23 51.550781 23 51L23 49C23 48.449219 22.550781 48 22 48 Z M 27 48C26.449219 48 26 48.449219 26 49L26 51C26 51.550781 26.449219 52 27 52C27.550781 52 28 51.550781 28 51L28 49C28 48.449219 27.550781 48 27 48 Z M 32 48C31.449219 48 31 48.449219 31 49L31 51C31 51.550781 31.449219 52 32 52C32.550781 52 33 51.550781 33 51L33 49C33 48.449219 32.550781 48 32 48 Z M 37 48C36.449219 48 36 48.449219 36 49L36 51C36 51.550781 36.449219 52 37 52C37.550781 52 38 51.550781 38 51L38 49C38 48.449219 37.550781 48 37 48 Z M 42 48C41.449219 48 41 48.449219 41 49L41 51C41 51.550781 41.449219 52 42 52C42.550781 52 43 51.550781 43 51L43 49C43 48.449219 42.550781 48 42 48 Z M 47 48C46.449219 48 46 48.449219 46 49L46 51C46 51.550781 46.449219 52 47 52C47.550781 52 48 51.550781 48 51L48 49C48 48.449219 47.550781 48 47 48 Z M 8 54L10 54L10 58L8 58C6.898438 58 6 57.101563 6 56C6 54.898438 6.898438 54 8 54 Z M 54 54L56 54C57.101563 54 58 54.898438 58 56C58 57.101563 57.101563 58 56 58L54 58Z" fill="#5B5B5B" />
</svg>