<svg xmlns="http://www.w3.org/2000/svg" xmlns:xlink="http://www.w3.org/1999/xlink" viewBox="0 0 32 32" fill="#5B5B5B">
  <path d="M3 6L3 16.972656L5 14.972656L5 8L27 8L27 22L12.027344 22L10.027344 24L29 24L29 6L3 6 z M 21 10L21 11.039062C19.875437 11.22623 19 12.209879 19 13.382812L19 14.382812L19.285156 14.382812C19.477986 14.713613 19.752968 14.995171 20.107422 15.171875L22.998047 16.617188C22.997234 16.838456 22.838773 17 22.617188 17L21.382812 17C21.160661 17 21 16.83934 21 16.617188L21 16L19 16L19 16.617188C19 17.790121 19.875437 18.77377 21 18.960938L21 20L23 20L23 18.958984C23.717339 18.814483 24.244424 18.27419 24.583984 17.617188L25 17.617188L25 16.617188C25 15.861757 24.568804 15.166256 23.894531 14.828125L21.001953 13.380859C21.003573 13.160475 21.161793 13 21.382812 13L22.617188 13C22.839339 13 23 13.16066 23 13.382812L23 14L25 14L25 13.382812C25 12.209879 24.124563 11.22623 23 11.039062L23 10L21 10 z M 16 11L10.699219 12.099609L1.9003906 20.900391C1.3003906 21.500391 1 22.25 1 23C1 23.75 1.3003906 24.499609 1.9003906 25.099609C2.5003906 25.699609 3.25 26 4 26C4.75 26 5.4996094 25.699609 6.0996094 25.099609L14.900391 16.300781L16 11 z M 13.400391 13.599609L13.099609 15.300781L4.6992188 23.699219C4.2992187 24.099219 3.7007812 24.099219 3.3007812 23.699219C2.9007813 23.299219 2.9007813 22.700781 3.3007812 22.300781L11.699219 13.900391L13.400391 13.599609 z" fill="#5B5B5B" />
</svg>