<svg xmlns="http://www.w3.org/2000/svg" xmlns:xlink="http://www.w3.org/1999/xlink" viewBox="0 0 64 64" fill="#5B5B5B">
  <path d="M33.5 2C30.359375 2 27.621094 3.699219 26.152344 6.242188C25.460938 6.082031 24.738281 6 24 6C19.910156 6 16.378906 8.46875 14.839844 12L12.539063 12C11.179688 12 9.992188 12.921875 9.640625 14.230469L2.171875 42.238281C2.058594 42.648438 2 43.089844 2 43.519531L2 59C2 60.648438 3.351563 62 5 62L59 62C60.648438 62 62 60.648438 62 59L62 43.519531C62 43.089844 61.941406 42.648438 61.828125 42.238281L54.359375 14.230469C54.007813 12.921875 52.820313 12 51.460938 12L41.871094 12C41.949219 11.511719 42 11.011719 42 10.5C42 5.808594 38.191406 2 33.5 2 Z M 33.5 4C37.078125 4 40 6.921875 40 10.5C40 11.019531 39.941406 11.519531 39.820313 12C39.648438 12.71875 39.359375 13.398438 38.96875 14C38.300781 15.039063 37.339844 15.878906 36.210938 16.402344C35.5 16.21875 34.761719 16.097656 34 16.039063L34 16C34 15.308594 33.929688 14.640625 33.800781 14C33.660156 13.300781 33.441406 12.628906 33.160156 12C32.171875 9.730469 30.359375 7.902344 28.097656 6.890625C29.269531 5.152344 31.25 4 33.5 4 Z M 24 8C24.460938 8 24.898438 8.039063 25.339844 8.109375C26.011719 8.230469 26.660156 8.417969 27.261719 8.6875C28.800781 9.390625 30.078125 10.550781 30.921875 12C31.28125 12.621094 31.558594 13.289063 31.75 14C31.910156 14.640625 32 15.308594 32 16L32 16.039063C27.230469 16.398438 23.171875 19.359375 21.21875 23.5C18.171875 22.359375 16 19.429688 16 16C16 15.308594 16.089844 14.640625 16.25 14C16.441406 13.289063 16.71875 12.621094 17.078125 12C18.460938 9.609375 21.050781 8 24 8 Z M 24 10C20.691406 10 18 12.691406 18 16C18 16.550781 18.445313 17 19 17C19.554688 17 20 16.550781 20 16C20 13.792969 21.792969 12 24 12C24.554688 12 25 11.550781 25 11C25 10.449219 24.554688 10 24 10 Z M 12.539063 14L14.199219 14C14.070313 14.640625 14 15.308594 14 16C14 20.289063 16.71875 23.960938 20.519531 25.371094C20.179688 26.519531 20 27.738281 20 29C20 36.171875 25.828125 42 33 42C40.171875 42 46 36.171875 46 29C46 23.851563 42.992188 19.390625 38.628906 17.28125C39.75 16.429688 40.660156 15.300781 41.238281 14L51.460938 14C51.921875 14 52.308594 14.308594 52.429688 14.738281L59.902344 42.75C59.96875 43 60 43.257813 60 43.519531L60 44L42.828125 44C42.027344 44 41.273438 44.3125 40.707031 44.878906L37.878906 47.707031C37.691406 47.894531 37.433594 48 37.171875 48L26.828125 48C26.566406 48 26.308594 47.894531 26.121094 47.707031L23.292969 44.878906C22.726563 44.3125 21.972656 44 21.171875 44L4 44L4 43.519531C4 43.257813 4.03125 43 4.101563 42.75L11.570313 14.738281C11.691406 14.308594 12.078125 14 12.539063 14 Z M 33 18C33.261719 18 33.527344 18.007813 33.789063 18.03125C34.667969 18.089844 35.519531 18.261719 36.328125 18.511719C40.769531 19.929688 44 24.089844 44 29C44 35.070313 39.070313 40 33 40C26.929688 40 22 35.070313 22 29C22 27.910156 22.160156 26.871094 22.449219 25.878906C22.648438 25.210938 22.910156 24.570313 23.21875 23.960938C24.859375 20.78125 28.011719 18.511719 31.71875 18.078125C32.140625 18.03125 32.570313 18 33 18 Z M 33 20C32.445313 20 32 20.449219 32 21L32 22C29.792969 22 28 23.792969 28 26C28 28.207031 29.792969 30 32 30L34 30C35.101563 30 36 30.898438 36 32C36 33.101563 35.101563 34 34 34L34 32C34 31.449219 33.554688 31 33 31C32.445313 31 32 31.449219 32 32L32 34C30.898438 34 30 33.101563 30 32C30 31.449219 29.554688 31 29 31C28.445313 31 28 31.449219 28 32C28 34.207031 29.792969 36 32 36L32 37C32 37.550781 32.445313 38 33 38C33.554688 38 34 37.550781 34 37L34 36C36.207031 36 38 34.207031 38 32C38 29.792969 36.207031 28 34 28L34 26C34 25.449219 33.554688 25 33 25C32.445313 25 32 25.449219 32 26L32 28C30.898438 28 30 27.101563 30 26C30 24.898438 30.898438 24 32 24L34 24C35.101563 24 36 24.898438 36 26C36 26.550781 36.445313 27 37 27C37.554688 27 38 26.550781 38 26C38 23.792969 36.207031 22 34 22L34 21C34 20.449219 33.554688 20 33 20 Z M 4 46L21.171875 46C21.433594 46 21.691406 46.105469 21.878906 46.292969L24.707031 49.121094C25.273438 49.6875 26.027344 50 26.828125 50L37.171875 50C37.972656 50 38.726563 49.6875 39.292969 49.121094L42.121094 46.292969C42.308594 46.105469 42.566406 46 42.828125 46L60 46L60 59C60 59.550781 59.550781 60 59 60L5 60C4.449219 60 4 59.550781 4 59 Z M 7 52C6.445313 52 6 52.449219 6 53L6 55C6 55.550781 6.445313 56 7 56C7.554688 56 8 55.550781 8 55L8 53C8 52.449219 7.554688 52 7 52 Z M 12 52C11.445313 52 11 52.449219 11 53L11 55C11 55.550781 11.445313 56 12 56C12.554688 56 13 55.550781 13 55L13 53C13 52.449219 12.554688 52 12 52 Z M 17 52C16.445313 52 16 52.449219 16 53L16 55C16 55.550781 16.445313 56 17 56C17.554688 56 18 55.550781 18 55L18 53C18 52.449219 17.554688 52 17 52 Z M 22 52C21.445313 52 21 52.449219 21 53L21 55C21 55.550781 21.445313 56 22 56C22.554688 56 23 55.550781 23 55L23 53C23 52.449219 22.554688 52 22 52 Z M 27 52C26.445313 52 26 52.449219 26 53L26 55C26 55.550781 26.445313 56 27 56C27.554688 56 28 55.550781 28 55L28 53C28 52.449219 27.554688 52 27 52 Z M 32 52C31.445313 52 31 52.449219 31 53L31 55C31 55.550781 31.445313 56 32 56C32.554688 56 33 55.550781 33 55L33 53C33 52.449219 32.554688 52 32 52 Z M 37 52C36.445313 52 36 52.449219 36 53L36 55C36 55.550781 36.445313 56 37 56C37.554688 56 38 55.550781 38 55L38 53C38 52.449219 37.554688 52 37 52 Z M 42 52C41.445313 52 41 52.449219 41 53L41 55C41 55.550781 41.445313 56 42 56C42.554688 56 43 55.550781 43 55L43 53C43 52.449219 42.554688 52 42 52 Z M 47 52C46.445313 52 46 52.449219 46 53L46 55C46 55.550781 46.445313 56 47 56C47.554688 56 48 55.550781 48 55L48 53C48 52.449219 47.554688 52 47 52 Z M 52 52C51.445313 52 51 52.449219 51 53L51 55C51 55.550781 51.445313 56 52 56C52.554688 56 53 55.550781 53 55L53 53C53 52.449219 52.554688 52 52 52 Z M 57 52C56.445313 52 56 52.449219 56 53L56 55C56 55.550781 56.445313 56 57 56C57.554688 56 58 55.550781 58 55L58 53C58 52.449219 57.554688 52 57 52Z" fill="#5B5B5B" />
</svg>