<svg xmlns="http://www.w3.org/2000/svg" xmlns:xlink="http://www.w3.org/1999/xlink" viewBox="0 0 32 32" fill="#5B5B5B">
  <path d="M2 5L2 21L30 21L30 5 Z M 5.914063 7L26.089844 7C26.03125 7.160156 26 7.328125 26 7.5C26 8.328125 26.671875 9 27.5 9C27.671875 9 27.839844 8.96875 28 8.914063L28 17.089844C27.839844 17.03125 27.671875 17 27.5 17C26.671875 17 26 17.671875 26 18.5C26 18.671875 26.03125 18.839844 26.089844 19L5.914063 19C5.96875 18.839844 6 18.671875 6 18.5C6 17.671875 5.328125 17 4.5 17C4.328125 17 4.160156 17.03125 4 17.089844L4 8.914063C4.160156 8.96875 4.328125 9 4.5 9C5.328125 9 6 8.328125 6 7.5C6 7.328125 5.96875 7.160156 5.914063 7 Z M 16 9C13.789063 9 12 10.789063 12 13L12 14L12.203125 14C12.652344 15.710938 14.144531 17 16 17C17.855469 17 19.347656 15.710938 19.796875 14L20 14L20 13C20 10.789063 18.210938 9 16 9 Z M 16 11C17.191406 11 18 11.808594 18 13C18 14.191406 17.191406 15 16 15C14.808594 15 14 14.191406 14 13C14 11.808594 14.808594 11 16 11 Z M 9 11.5C8.171875 11.5 7.5 12.171875 7.5 13C7.5 13.828125 8.171875 14.5 9 14.5C9.828125 14.5 10.5 13.828125 10.5 13C10.5 12.171875 9.828125 11.5 9 11.5 Z M 23 11.5C22.171875 11.5 21.5 12.171875 21.5 13C21.5 13.828125 22.171875 14.5 23 14.5C23.828125 14.5 24.5 13.828125 24.5 13C24.5 12.171875 23.828125 11.5 23 11.5 Z M 2 22L2 24L3.003906 24C3.003906 24 17.339844 23.960938 27.746094 26.71875L29 27.046875L29 22L27 22L27 23.089844C26.839844 23.03125 26.671875 23 26.5 23C25.824219 23 25.230469 23.457031 25.050781 24.109375C14.777344 21.988281 3.011719 22 3 22Z" fill="#5B5B5B" />
</svg>