<svg xmlns="http://www.w3.org/2000/svg" xmlns:xlink="http://www.w3.org/1999/xlink" viewBox="0 0 80 80" fill="#5B5B5B">
  <path d="M25 8C22.250484 8 20 10.250484 20 13L20 67C20 69.749516 22.250484 72 25 72L55 72C57.749516 72 60 69.749516 60 67L60 58L58 58L58 60L22 60L22 18L58 18L58 20L60 20L60 13C60 10.250484 57.749516 8 55 8L25 8 z M 25 10L55 10C56.668484 10 58 11.331516 58 13L58 16L22 16L22 13C22 11.331516 23.331516 10 25 10 z M 31.947266 12 A 1 1 0 0 0 30.947266 13 A 1 1 0 0 0 31.947266 14 A 1 1 0 0 0 32.947266 13 A 1 1 0 0 0 31.947266 12 z M 36 12 A 1.0001 1.0001 0 1 0 36 14L44 14 A 1.0001 1.0001 0 1 0 44 12L36 12 z M 26 20 A 1 1 0 0 0 25 21 A 1 1 0 0 0 26 22 A 1 1 0 0 0 27 21 A 1 1 0 0 0 26 20 z M 59 23C50.178 23 43 30.178 43 39C43 47.822 50.178 55 59 55C67.822 55 75 47.822 75 39C75 30.178 67.822 23 59 23 z M 26 24 A 1 1 0 0 0 25 25 A 1 1 0 0 0 26 26 A 1 1 0 0 0 27 25 A 1 1 0 0 0 26 24 z M 59 25C66.72 25 73 31.28 73 39C73 46.72 66.72 53 59 53C51.28 53 45 46.72 45 39C45 31.28 51.28 25 59 25 z M 26 28 A 1 1 0 0 0 25 29 A 1 1 0 0 0 26 30 A 1 1 0 0 0 27 29 A 1 1 0 0 0 26 28 z M 58.390625 30.820312L58.390625 32.126953C55.722625 32.353953 54.113281 33.819734 54.113281 36.052734C54.113281 37.944734 55.297422 39.232484 57.482422 39.771484L58.390625 39.988281L58.390625 44.019531C57.075625 43.877531 56.213906 43.120547 56.128906 42.060547L53.820312 42.060547C53.829313 44.292547 55.569672 45.787031 58.388672 45.957031L58.388672 47.179688L59.695312 47.179688L59.695312 45.949219C62.543312 45.713219 64.179688 44.246391 64.179688 41.900391C64.180688 39.903391 63.035812 38.683 60.632812 38.125L59.695312 37.925781L59.695312 34.095703C60.830312 34.246703 61.624344 35.022094 61.652344 35.996094L63.914062 35.996094C63.867063 33.867094 62.221313 32.352953 59.695312 32.126953L59.695312 30.820312L58.390625 30.820312 z M 26 32 A 1 1 0 0 0 25 33 A 1 1 0 0 0 26 34 A 1 1 0 0 0 27 33 A 1 1 0 0 0 26 32 z M 58.390625 34.083984L58.390625 37.650391C57.122625 37.385391 56.451172 36.761516 56.451172 35.853516C56.451172 34.887516 57.265625 34.150984 58.390625 34.083984 z M 26 36 A 1 1 0 0 0 25 37 A 1 1 0 0 0 26 38 A 1 1 0 0 0 27 37 A 1 1 0 0 0 26 36 z M 26 40 A 1 1 0 0 0 25 41 A 1 1 0 0 0 26 42 A 1 1 0 0 0 27 41 A 1 1 0 0 0 26 40 z M 59.695312 40.234375C61.190312 40.527375 61.871094 41.131531 61.871094 42.144531C61.871094 43.261531 61.077312 43.952109 59.695312 44.037109L59.695312 40.234375 z M 26 44 A 1 1 0 0 0 25 45 A 1 1 0 0 0 26 46 A 1 1 0 0 0 27 45 A 1 1 0 0 0 26 44 z M 26 48 A 1 1 0 0 0 25 49 A 1 1 0 0 0 26 50 A 1 1 0 0 0 27 49 A 1 1 0 0 0 26 48 z M 26 52 A 1 1 0 0 0 25 53 A 1 1 0 0 0 26 54 A 1 1 0 0 0 27 53 A 1 1 0 0 0 26 52 z M 26 56 A 1 1 0 0 0 25 57 A 1 1 0 0 0 26 58 A 1 1 0 0 0 27 57 A 1 1 0 0 0 26 56 z M 22 62L58 62L58 67C58 68.668484 56.668484 70 55 70L25 70C23.331516 70 22 68.668484 22 67L22 62 z M 40 64 A 2 2 0 0 0 38 66 A 2 2 0 0 0 40 68 A 2 2 0 0 0 42 66 A 2 2 0 0 0 40 64 z" fill="#5B5B5B" />
</svg>