<svg xmlns="http://www.w3.org/2000/svg" xmlns:xlink="http://www.w3.org/1999/xlink" viewBox="0 0 64 64" fill="#5B5B5B">
  <path d="M32 -0.001953125C31.7425 -0.001953125 31.484062 0.0940625 31.289062 0.2890625L19.289062 12.289062C18.899062 12.679063 18.899062 13.320937 19.289062 13.710938L23.289062 17.710938C23.679063 18.100938 24.320938 18.100938 24.710938 17.710938L28 14.410156L28 20.580078C22.22 22.310078 18 27.67 18 34C18 39.598 21.310359 44.423109 26.068359 46.662109C26.030359 46.768109 26 46.88 26 47L26 49C26 49.552 26.447 50 27 50C27.553 50 28 49.552 28 49L28 47.410156C28.961 47.697156 29.966 47.875219 31 47.949219L31 49C31 49.552 31.447 50 32 50C32.553 50 33 49.552 33 49L33 47.949219C34.034 47.875219 35.039 47.697156 36 47.410156L36 49C36 49.552 36.447 50 37 50C37.553 50 38 49.552 38 49L38 47C38 46.88 37.969641 46.768109 37.931641 46.662109C42.689641 44.423109 46 39.598 46 34C46 27.67 41.78 22.310078 36 20.580078L36 14.410156L39.289062 17.710938C39.679063 18.100938 40.320938 18.100938 40.710938 17.710938L44.710938 13.710938C45.100938 13.320937 45.100937 12.679063 44.710938 12.289062L32.710938 0.2890625C32.515937 0.0940625 32.2575 -0.001953125 32 -0.001953125 z M 32 2.4101562L42.589844 13L40 15.589844L35.710938 11.289062C35.420938 11.009063 34.989141 10.920078 34.619141 11.080078C34.239141 11.230078 34 11.6 34 12L34 20.140625C33.35 20.050625 32.68 20 32 20C31.32 20 30.65 20.050625 30 20.140625L30 12C30 11.6 29.760859 11.230078 29.380859 11.080078C29.010859 10.920078 28.579062 11.009062 28.289062 11.289062L24 15.589844L21.410156 13L32 2.4101562 z M 32 22C32.68 22 33.35 22.059922 34 22.169922C34.69 22.279922 35.36 22.459453 36 22.689453C40.66 24.339453 44 28.78 44 34C44 40.62 38.62 46 32 46C25.38 46 20 40.62 20 34C20 28.78 23.34 24.339453 28 22.689453C28.64 22.459453 29.31 22.279922 30 22.169922C30.65 22.059922 31.32 22 32 22 z M 2 24C0.897 24 0 24.897 0 26L0 28C0 29.103 0.897 30 2 30L4 30L4 53C4 55.757 6.243 58 9 58L55 58C57.757 58 60 55.757 60 53L60 30L62 30C63.103 30 64 29.103 64 28L64 26C64 24.897 63.103 24 62 24L59 24C56.243 24 54 26.243 54 29L54 52L10 52L10 29C10 26.243 7.757 24 5 24L2 24 z M 32 25C31.447 25 31 25.448 31 26L31 27C28.794 27 27 28.794 27 31C27 33.206 28.794 35 31 35L33 35C34.103 35 35 35.897 35 37C35 38.103 34.103 39 33 39L33 37C33 36.448 32.553 36 32 36C31.447 36 31 36.448 31 37L31 39C29.897 39 29 38.103 29 37C29 36.448 28.553 36 28 36C27.447 36 27 36.448 27 37C27 39.206 28.794 41 31 41L31 42C31 42.552 31.447 43 32 43C32.553 43 33 42.552 33 42L33 41C35.206 41 37 39.206 37 37C37 34.794 35.206 33 33 33L33 31C33 30.448 32.553 30 32 30C31.447 30 31 30.448 31 31L31 33C29.897 33 29 32.103 29 31C29 29.897 29.897 29 31 29L33 29C34.103 29 35 29.897 35 31C35 31.552 35.447 32 36 32C36.553 32 37 31.552 37 31C37 28.794 35.206 27 33 27L33 26C33 25.448 32.553 25 32 25 z M 2 26L5 26C6.654 26 8 27.346 8 29L8 52C8 53.103 8.897 54 10 54L54 54C55.103 54 56 53.103 56 52L56 29C56 27.346 57.346 26 59 26L62 26L62 28L59 28C58.447 28 58 28.448 58 29L58 53C58 54.654 56.654 56 55 56L9 56C7.346 56 6 54.654 6 53L6 29C6 28.448 5.553 28 5 28L2 28L2 26 z M 12 46C11.447 46 11 46.448 11 47L11 49C11 49.552 11.447 50 12 50C12.553 50 13 49.552 13 49L13 47C13 46.448 12.553 46 12 46 z M 17 46C16.447 46 16 46.448 16 47L16 49C16 49.552 16.447 50 17 50C17.553 50 18 49.552 18 49L18 47C18 46.448 17.553 46 17 46 z M 22 46C21.447 46 21 46.448 21 47L21 49C21 49.552 21.447 50 22 50C22.553 50 23 49.552 23 49L23 47C23 46.448 22.553 46 22 46 z M 42 46C41.447 46 41 46.448 41 47L41 49C41 49.552 41.447 50 42 50C42.553 50 43 49.552 43 49L43 47C43 46.448 42.553 46 42 46 z M 47 46C46.447 46 46 46.448 46 47L46 49C46 49.552 46.447 50 47 50C47.553 50 48 49.552 48 49L48 47C48 46.448 47.553 46 47 46 z M 52 46C51.447 46 51 46.448 51 47L51 49C51 49.552 51.447 50 52 50C52.553 50 53 49.552 53 49L53 47C53 46.448 52.553 46 52 46 z" fill="#5B5B5B" />
</svg>